<svg xmlns="http://www.w3.org/2000/svg" xmlns:xlink="http://www.w3.org/1999/xlink" zoomAndPan="magnify" preserveAspectRatio="xMidYMid meet" version="1.0" viewBox="92.78 122.96 192.13 113.63"><defs><g/></defs><g fill="#ffffff" fill-opacity="1"><g transform="translate(92.783786, 236.586877)"><g><path d="M 52.125 -63.0625 C 44.03125 -66.898438 36.078125 -66.898438 35.367188 -66.898438 C 28.121094 -66.898438 21.164062 -71.160156 21.164062 -79.398438 C 21.164062 -88.488281 27.554688 -93.175781 35.367188 -93.175781 C 42.753906 -93.175781 49.003906 -89.339844 49.285156 -81.242188 C 49.285156 -80.816406 49.996094 -80.109375 50.847656 -80.109375 L 68.601562 -80.109375 C 69.597656 -80.109375 70.308594 -80.816406 70.164062 -81.242188 C 69.882812 -100.5625 54.824219 -113.628906 35.367188 -113.628906 C 17.1875 -113.628906 0 -100.703125 0 -79.398438 C 0 -66.1875 6.675781 -56.105469 18.464844 -50.707031 C 26.703125 -46.871094 34.371094 -46.871094 35.367188 -46.871094 C 41.757812 -46.585938 49.570312 -41.472656 49.570312 -33.09375 C 49.570312 -25.566406 42.894531 -20.453125 35.367188 -20.453125 C 35.367188 -20.453125 35.367188 -20.453125 35.226562 -20.453125 L 35.226562 0 C 35.367188 0 35.367188 0 35.367188 0 C 53.546875 0 70.589844 -11.789062 70.589844 -33.09375 C 70.589844 -46.445312 64.058594 -57.523438 52.125 -63.0625 Z M 52.125 -63.0625 "/></g></g></g><g fill="#ffffff" fill-opacity="1"><g transform="translate(172.039066, 230.211878)"><g><path d="M 93.109375 -25.097656 L 112.875 -25.097656 L 112.875 -102.863281 C 112.875 -103.382812 112.355469 -104.035156 111.445312 -104.035156 L 94.28125 -104.035156 C 93.761719 -104.035156 93.109375 -103.644531 92.851562 -103.253906 L 57.347656 -27.050781 L 20.027344 -103.253906 C 19.898438 -103.644531 19.117188 -104.035156 18.726562 -104.035156 L 1.300781 -104.035156 C 0.390625 -104.035156 0 -103.382812 0 -102.863281 L 0 -1.171875 C 0 -0.648438 0.390625 0 1.300781 0 L 18.464844 0 C 19.246094 0 19.898438 -0.648438 19.898438 -1.171875 L 19.898438 -59.558594 L 48.117188 -4.941406 C 48.246094 -4.550781 49.027344 -4.160156 49.417969 -4.160156 L 65.410156 -4.160156 C 65.800781 -4.160156 66.453125 -4.550781 66.582031 -4.941406 L 93.109375 -58.128906 Z M 93.109375 -25.097656 "/></g></g></g></svg>